<?xml version="1.0" encoding="UTF-8"?><svg xmlns="http://www.w3.org/2000/svg" width="500" height="500" viewBox="0 0 500 500" fill="none" version="1.2" baseProfile="tiny-ps"><title>Robinhood Markets Inc VMC Logo</title><g><rect width="500" height="500" fill="white"></rect><path d="M248.389 327.669L246.608 328.254C235.147 332.059 218.198 337.936 202.98 344.935C202.176 345.325 201.639 346.398 201.639 346.398C201.346 347.057 201.005 347.861 200.615 348.764L200.566 348.886C198.859 352.763 196.518 358.592 195.494 360.981L194.713 362.859C194.591 363.152 194.664 363.493 194.908 363.713C195.055 363.859 195.225 363.932 195.42 363.932C195.518 363.932 195.64 363.908 195.762 363.859L197.591 362.981C201.761 361.006 207.029 358.006 212.54 355.372L212.735 355.275C223.246 350.3 235.098 344.667 242.243 341.253C242.243 341.253 243.389 340.643 243.975 339.497L249.315 328.766C249.462 328.498 249.413 328.157 249.218 327.913C249.023 327.669 248.681 327.572 248.389 327.669Z" fill="black"></path><path d="M205.663 311.037C206.419 309.574 209.882 302.892 210.662 301.404L210.809 301.136C234.025 257.362 262.313 216.051 294.87 178.397L295.772 177.349C296.04 177.032 296.089 176.544 295.894 176.178C295.675 175.788 295.26 175.593 294.845 175.642L293.48 175.837C272.117 178.788 250.486 182.86 229.172 187.957C227.05 188.542 225.684 189.932 225.392 190.249C209.443 209.344 194.347 229.439 180.496 250.046C179.813 251.094 179.569 252.46 179.74 253.582C179.886 254.679 183.227 280.407 188.299 300.161C175.716 336.375 164.474 384.1 164.474 384.1C164.376 384.417 164.449 384.734 164.62 385.002C164.815 385.271 165.108 385.417 165.449 385.417H172.619C173.082 385.417 173.472 385.149 173.643 384.734L174.131 383.393C181.447 363.444 189.787 343.74 199.005 324.523C201.151 320.085 205.663 311.037 205.663 311.037Z" fill="black"></path><path d="M305.381 186.25L305.356 184.885C305.332 184.446 305.064 184.08 304.673 183.934C304.283 183.787 303.82 183.909 303.527 184.226L302.625 185.25C264.655 229.171 232.732 277.896 207.76 330.108L207.175 331.327C206.98 331.718 207.053 332.181 207.346 332.498C207.541 332.693 207.809 332.815 208.077 332.815C208.199 332.815 208.346 332.791 208.492 332.742L209.736 332.23C231.074 323.402 252.851 315.744 274.483 309.477C275.775 309.111 276.872 308.184 277.482 306.989C286.969 288.504 308.99 252.704 308.99 252.704C309.551 251.9 309.404 250.705 309.404 250.705C309.404 250.705 305.625 207.906 305.381 186.25Z" fill="black"></path><path d="M354.496 124.502C349.106 119.82 341.278 117.625 329.133 117.357C318.111 117.113 305.015 119.503 290.163 124.38C287.944 125.161 286.164 126.405 284.579 127.941C269.483 142.11 254.803 157.156 240.926 172.666L239.853 173.837C239.561 174.178 239.512 174.666 239.731 175.032C239.951 175.422 240.414 175.617 240.853 175.52L242.414 175.178C264.777 170.398 287.359 166.74 309.526 164.326C310.99 164.155 312.502 164.643 313.575 165.643C314.672 166.643 315.282 168.082 315.257 169.569C314.892 191.566 315.696 213.661 317.647 235.243L317.769 236.657C317.818 237.096 318.111 237.438 318.55 237.56C318.623 237.584 318.696 237.584 318.793 237.608C319.111 237.608 319.452 237.462 319.671 237.169L320.476 236.023C332.962 218.221 346.546 200.906 360.836 184.518C362.446 182.689 362.86 181.543 363.153 179.885C367.64 151.157 360.69 129.892 354.496 124.502Z" fill="black"></path></g></svg>